<?xml version="1.0" standalone="no"?><!DOCTYPE svg PUBLIC "-//W3C//DTD SVG 1.1//EN" "http://www.w3.org/Graphics/SVG/1.1/DTD/svg11.dtd"><svg t="1534491177211" class="icon" style="" viewBox="0 0 1024 1024" version="1.1" xmlns="http://www.w3.org/2000/svg" p-id="2042" xmlns:xlink="http://www.w3.org/1999/xlink" width="200" height="200"><defs><style type="text/css"></style></defs><path d="M912 192H328c-4.4 0-8 3.6-8 8v56c0 4.4 3.6 8 8 8h584c4.4 0 8-3.6 8-8v-56c0-4.4-3.6-8-8-8zM912 476H328c-4.4 0-8 3.6-8 8v56c0 4.4 3.6 8 8 8h584c4.4 0 8-3.6 8-8v-56c0-4.4-3.6-8-8-8zM912 760H328c-4.4 0-8 3.6-8 8v56c0 4.4 3.6 8 8 8h584c4.4 0 8-3.6 8-8v-56c0-4.4-3.6-8-8-8z" p-id="2043"></path><path d="M160 228m-56 0a56 56 0 1 0 112 0 56 56 0 1 0-112 0Z" p-id="2044"></path><path d="M160 512m-56 0a56 56 0 1 0 112 0 56 56 0 1 0-112 0Z" p-id="2045"></path><path d="M160 796m-56 0a56 56 0 1 0 112 0 56 56 0 1 0-112 0Z" p-id="2046"></path></svg>